<svg xmlns="http://www.w3.org/2000/svg" id="Layer_6" data-name="Layer 6" viewBox="0 0 288 288"><defs><style>.cls-1{fill:#8c6239}.cls-2{fill-rule:evenodd}.cls-3{fill:#754c24}.cls-4{fill:#009245}</style></defs><title>Artboard 1</title><g id="leaf_copy_5" data-name="leaf copy 5"><path d="M150.756,95.432c1.254.817,52.987,49.312,33.354,96.795-2.839,6.857-11.69,20.911-34.51,24.45-25.316,3.669-48.709-9.048-59.627-31.914-12.041-34.355-4.066-71.072,35.4-91.55A22.688,22.688,0,0,1,138.7,90.039C144.841,90.627,148.784,94.151,150.756,95.432Z" class="cls-1"/><path d="M140.964,217.806c-22.069,0-41.782-12.577-51.448-32.825-6.336-18.066-6.891-35.808-1.631-51.354,5.852-17.318,18.39-31.064,37.256-40.851a23,23,0,0,1,13.613-3.237A22.514,22.514,0,0,1,150,94.293c.409.3.743.535,1.03.724.852.551,14.079,12.98,24.666,31.061,9.714,16.574,19.135,41.543,8.874,66.343-2.571,6.213-11.12,21.067-34.892,24.75A61.471,61.471,0,0,1,140.964,217.806ZM90.428,184.575c10.911,22.819,34.1,35.223,59.1,31.608,23.266-3.605,31.607-18.093,34.117-24.15,5.58-13.477,8.568-35.774-8.809-65.453-10.5-17.929-23.517-30.183-24.349-30.725-.306-.206-.668-.461-1.068-.75a21.61,21.61,0,0,0-10.765-4.573,22.067,22.067,0,0,0-13.033,3.119c-18.637,9.674-31.011,23.226-36.784,40.3C83.651,149.271,84.2,166.776,90.428,184.575Z" class="cls-2"/><path d="M85.9,152.4c-.019.4-.039.8-.049,1.2-.021.561-.032,1.115-.024,1.677-.013.449-.006.892,0,1.342a4.958,4.958,0,0,0,.009.548c0,.442.014.878.032,1.314,0,.255.012.511.033.76.015.473.039.94.073,1.415.011.248.032.5.054.746.021.384.052.761.093,1.146.02.264.04.528.07.792.054.611.118,1.215.2,1.821.064.6.148,1.2.241,1.809.108.8.236,1.614.374,2.419q.361,2.118.841,4.229c.31,1.409.669,2.823,1.057,4.23.185.7.389,1.4.6,2.1.117.421.253.843.38,1.257a1.424,1.424,0,0,0,.065.185c.286.928.592,1.85.918,2.773.452.94.915,1.866,1.41,2.772.035.063.06.117.1.179.538.984,1.106,1.955,1.7,2.9.14.235.291.464.441.692.185.3.379.6.584.89.115.173.23.354.355.528q.706,1.03,1.445,2.018c.242.318.475.627.718.937q.688.883,1.408,1.722c.19.231.38.448.58.672.626.713,1.263,1.412,1.922,2.083q.288.3.577.582c.3.314.614.615.936.916.34.325.69.65,1.031.96.286.261.572.514.868.761.35.318.712.622,1.083.927q1.516,1.247,3.1,2.372c.205.15.4.292.608.427a1.553,1.553,0,0,0,.206.135c.355.251.712.487,1.078.724.479.312.958.618,1.448.908.348.213.707.419,1.065.625.519.3,1.038.593,1.569.865.236.13.463.251.7.366.293.156.6.306.891.448.275.133.541.265.817.39.893.425,1.808.822,2.725,1.182.429.181.859.348,1.3.508.057.027.115.046.162.064.507.187,1.015.367,1.534.54q.489.171.979.319a1.016,1.016,0,0,0,.2.06q.331.114.663.206c.914.277,1.83.517,2.748.741l.725.166c.338.077.667.154,1.007.216.2.045.406.09.61.127.494.1.989.185,1.475.266.544.092,1.088.177,1.634.247.574.08,1.149.152,1.725.209s1.162.115,1.738.158a57.888,57.888,0,0,0,12.608-.461c1.094-.167,2.15-.367,3.179-.584.17-.033.349-.072.519-.112A44.862,44.862,0,0,0,173.6,204.727c.264-.243.527-.479.78-.722.739-.688,1.429-1.387,2.06-2.09a.784.784,0,0,0,.128-.14c.524-.576,1.008-1.148,1.463-1.722q.518-.637.977-1.255c.351-.491.691-.976,1.011-1.455s.621-.966.9-1.433c.134-.223.268-.438.382-.654-2.022.9-4.061,1.756-6.115,2.549-.343.125-.687.257-1.041.388q-1.031.385-2.06.748c-.7.234-1.381.468-2.086.694-.685.22-1.388.43-2.081.634-1.045.306-2.088.589-3.139.849-.7.173-1.4.332-2.11.482a48.064,48.064,0,0,1-24.7-.72c-.917-.367-1.832-.764-2.745-1.176s-1.806-.852-2.706-1.308l-1.335-.705a57.646,57.646,0,0,1-11.053-7.768c-6.629-6.011-11.451-13.606-12.554-22.45-2.762-27.7,10.064-54.528,27.887-76.412a1.479,1.479,0,0,0-.2.015c-.217.014-.435.036-.644.065-.277.025-.545.057-.814.105s-.527.081-.787.137a21.057,21.057,0,0,0-3.533.992c-.424.149-.819.315-1.2.482s-.731.314-1.058.485a5.149,5.149,0,0,0-.469.235c-.459.229-.859.447-1.187.64a91.883,91.883,0,0,0-8,4.667c-.537.35-1.064.7-1.571,1.054-.528.359-1.045.718-1.554,1.085a74.436,74.436,0,0,0-13.081,11.9c-.484.564-.958,1.136-1.414,1.718-.7.87-1.366,1.744-2.011,2.633-.427.591-.844,1.19-1.242,1.79-.463.686-.907,1.38-1.332,2.076-.278.437-.546.874-.8,1.32-.1.172-.192.338-.283.5-.269.452-.519.914-.769,1.375-.262.49-.525.988-.767,1.48-.275.527-.529,1.056-.785,1.591v.007c-.57,1.21-1.092,2.431-1.585,3.662-.049.139-.109.277-.158.416-.219.569-.438,1.152-.638,1.73v.007c-.234.65-.459,1.308-.665,1.968A67.033,67.033,0,0,0,85.9,152.4Z" class="cls-3"/><path d="M181.317,195.249v.007h-.01C181.307,195.248,181.317,195.249,181.317,195.249Z" class="cls-3"/><path d="M140.313,100.368c3.753,5.106,8.922,13.3,9.491,19.067a25.693,25.693,0,0,0,1.79,7.657l0,.007c16.265-42.094,9.131-57.43,9.131-57.43s-10.015,3.194-20.409,30.7l6.331,10.2,13.92-40.4" class="cls-4"/><path d="M136.415,95.62a58.614,58.614,0,0,1,6.681,7.6,51.84,51.84,0,0,1,5.341,8.675c.345.788.721,1.558,1,2.383l.449,1.22.346,1.271a19.036,19.036,0,0,1,.449,2.625c.069.815.125,1.631.228,2.439A22.263,22.263,0,0,0,154,131.12a13.228,13.228,0,0,1-2.981-4.136,22.289,22.289,0,0,1-1.651-4.884,25.438,25.438,0,0,1-.435-2.543,17.25,17.25,0,0,0-.534-2.3l-.347-1.146-.442-1.131c-.27-.76-.649-1.491-.985-2.233a87.4,87.4,0,0,0-4.82-8.655C140.056,101.263,138.234,98.462,136.415,95.62Z"/><path d="M146.108,111.9q1.1-5.461,2.656-10.762c.487-1.778,1.065-3.525,1.6-5.288l1.735-5.241c1.223-3.471,2.473-6.932,3.864-10.345q2.036-5.137,4.534-10.115l.142.049-7.122,20.9-7.264,20.85Z"/><path d="M140.313,100.368c.54-1.464,1.067-2.936,1.632-4.394s1.2-2.886,1.8-4.333c.618-1.438,1.3-2.851,1.968-4.268.721-1.392,1.429-2.794,2.2-4.165a63.5,63.5,0,0,1,5.222-7.894c.5-.621.994-1.24,1.541-1.825.521-.6,1.089-1.172,1.664-1.736a21.924,21.924,0,0,1,1.841-1.6c.315-.259.666-.491,1.012-.726a8.071,8.071,0,0,1,1.2-.657l.842-.364.353.857a18.457,18.457,0,0,1,1.045,3.852c.242,1.27.362,2.545.488,3.818a54.16,54.16,0,0,1,.018,7.623,89.935,89.935,0,0,1-2.211,14.97c-.242,1.237-.56,2.454-.892,3.667l-.972,3.644c-.742,2.4-1.473,4.8-2.284,7.178-.852,2.361-1.705,4.719-2.626,7.05-.955,2.318-1.913,4.632-2.911,6.927.744-2.394,1.527-4.768,2.313-7.139.748-2.384,1.4-4.8,2.139-7.178.675-2.4,1.272-4.821,1.93-7.222l.822-3.641c.274-1.213.566-2.421.776-3.646l.693-3.659.534-3.679c.212-1.223.3-2.456.437-3.685l.184-1.845.1-1.848c.029-.616.073-1.232.09-1.847l0-1.845c.041-1.233-.06-2.452-.1-3.678-.111-1.215-.216-2.434-.434-3.624a17.735,17.735,0,0,0-.865-3.388l1.195.493A9.5,9.5,0,0,0,159.3,71.64a20.129,20.129,0,0,0-1.724,1.428c-.551.516-1.1,1.037-1.61,1.6-.533.543-1.026,1.127-1.517,1.715a65.193,65.193,0,0,0-5.39,7.5c-.829,1.307-1.6,2.653-2.387,3.991-.724,1.372-1.518,2.711-2.231,4.094s-1.431,2.766-2.1,4.172C141.681,97.559,140.991,98.959,140.313,100.368Z"/></g></svg>