<svg xmlns="http://www.w3.org/2000/svg" xmlns:xlink="http://www.w3.org/1999/xlink" id="Layer_6" x="0" y="0" enable-background="new 0 0 638.4 288" version="1.1" viewBox="0 0 638.4 288" xml:space="preserve"><style type="text/css">.st0{fill:#8c6239}.st1{fill:#754c24}.st2{fill:#009245}.st3{font-family:&apos;Montserrat-Bold&apos;}.st4{font-size:74px}</style><title>Artboard 1 copy 2</title><g id="leaf_copy_5"><path d="M134.4,95.7c1.3,0.8,53,49.3,33.4,96.8c-2.8,6.9-11.7,20.9-34.5,24.4c-25.3,3.7-48.7-9-59.6-31.9 c-12-34.4-4.1-71.1,35.4-91.6c4-2.4,8.7-3.5,13.3-3.2C128.5,90.9,132.4,94.4,134.4,95.7z" class="st0"/><path d="M74.1,184.8c10.9,22.8,34.1,35.2,59.1,31.6c23.3-3.6,31.6-18.1,34.1-24.1c5.6-13.5,8.6-35.8-8.8-65.5 C148,108.9,135,96.6,134.1,96.1c-0.3-0.2-0.7-0.5-1.1-0.8c-3.1-2.5-6.8-4.1-10.8-4.6c-4.6-0.3-9.1,0.8-13,3.1 c-18.6,9.7-31,23.2-36.8,40.3C67.3,149.5,67.9,167,74.1,184.8z M124.6,218c-22.1,0-41.8-12.6-51.4-32.8 c-6.3-18.1-6.9-35.8-1.6-51.4c5.9-17.3,18.4-31.1,37.3-40.9c4.1-2.5,8.8-3.6,13.6-3.2c4.1,0.5,8,2.2,11.2,4.8 c0.4,0.3,0.7,0.5,1,0.7c0.9,0.6,14.1,13,24.7,31.1c9.7,16.6,19.1,41.5,8.9,66.3c-2.6,6.2-11.1,21.1-34.9,24.8 C130.4,217.8,127.5,218,124.6,218z"/><path d="M69.5,152.6c0,0.4,0,0.8,0,1.2c0,0.6,0,1.1,0,1.7c0,0.4,0,0.9,0,1.3c0,0.2,0,0.4,0,0.5c0,0.4,0,0.9,0,1.3 c0,0.3,0,0.5,0,0.8c0,0.5,0,0.9,0.1,1.4c0,0.2,0,0.5,0.1,0.7c0,0.4,0.1,0.8,0.1,1.1c0,0.3,0,0.5,0.1,0.8c0.1,0.6,0.1,1.2,0.2,1.8 c0.1,0.6,0.1,1.2,0.2,1.8c0.1,0.8,0.2,1.6,0.4,2.4c0.2,1.4,0.5,2.8,0.8,4.2c0.3,1.4,0.7,2.8,1.1,4.2c0.2,0.7,0.4,1.4,0.6,2.1 c0.1,0.4,0.3,0.8,0.4,1.3c0,0.1,0,0.1,0.1,0.2c0.3,0.9,0.6,1.9,0.9,2.8c0.5,0.9,0.9,1.9,1.4,2.8c0,0.1,0.1,0.1,0.1,0.2 c0.5,1,1.1,2,1.7,2.9c0.1,0.2,0.3,0.5,0.4,0.7c0.2,0.3,0.4,0.6,0.6,0.9c0.1,0.2,0.2,0.4,0.4,0.5c0.5,0.7,1,1.4,1.4,2 c0.2,0.3,0.5,0.6,0.7,0.9c0.5,0.6,0.9,1.2,1.4,1.7c0.2,0.2,0.4,0.4,0.6,0.7c0.6,0.7,1.3,1.4,1.9,2.1c0.2,0.2,0.4,0.4,0.6,0.6 c0.3,0.3,0.6,0.6,0.9,0.9c0.3,0.3,0.7,0.6,1,1c0.3,0.3,0.6,0.5,0.9,0.8c0.3,0.3,0.7,0.6,1.1,0.9c1,0.8,2,1.6,3.1,2.4 c0.2,0.1,0.4,0.3,0.6,0.4c0.1,0.1,0.1,0.1,0.2,0.1c0.4,0.3,0.7,0.5,1.1,0.7c0.5,0.3,1,0.6,1.4,0.9c0.3,0.2,0.7,0.4,1.1,0.6 c0.5,0.3,1,0.6,1.6,0.9c0.2,0.1,0.5,0.3,0.7,0.4c0.3,0.2,0.6,0.3,0.9,0.4c0.3,0.1,0.5,0.3,0.8,0.4c0.9,0.4,1.8,0.8,2.7,1.2 c0.4,0.2,0.9,0.3,1.3,0.5c0.1,0,0.1,0,0.2,0.1c0.5,0.2,1,0.4,1.5,0.5c0.3,0.1,0.7,0.2,1,0.3c0.1,0,0.1,0,0.2,0.1 c0.2,0.1,0.4,0.1,0.7,0.2c0.9,0.3,1.8,0.5,2.7,0.7l0.7,0.2c0.3,0.1,0.7,0.2,1,0.2c0.2,0,0.4,0.1,0.6,0.1c0.5,0.1,1,0.2,1.5,0.3 c0.5,0.1,1.1,0.2,1.6,0.2c0.6,0.1,1.1,0.2,1.7,0.2s1.2,0.1,1.7,0.2c4.2,0.3,8.4,0.2,12.6-0.5c1.1-0.2,2.1-0.4,3.2-0.6 c0.2,0,0.3-0.1,0.5-0.1c7.6-1.5,14.7-5,20.6-10.1c0.3-0.2,0.5-0.5,0.8-0.7c0.7-0.7,1.4-1.4,2.1-2.1c0,0,0.1-0.1,0.1-0.1 c0.5-0.6,1-1.1,1.5-1.7c0.3-0.4,0.7-0.8,1-1.3c0.4-0.5,0.7-1,1-1.5s0.6-1,0.9-1.4c0.1-0.2,0.3-0.4,0.4-0.7c-2,0.9-4.1,1.8-6.1,2.5 c-0.3,0.1-0.7,0.3-1,0.4c-0.7,0.3-1.4,0.5-2.1,0.7c-0.7,0.2-1.4,0.5-2.1,0.7c-0.7,0.2-1.4,0.4-2.1,0.6c-1,0.3-2.1,0.6-3.1,0.8 c-0.7,0.2-1.4,0.3-2.1,0.5c-8.2,1.9-16.7,1.7-24.7-0.7c-0.9-0.4-1.8-0.8-2.7-1.2s-1.8-0.9-2.7-1.3l-1.3-0.7 c-4-2.1-7.7-4.8-11.1-7.8c-6.6-6-11.5-13.6-12.6-22.4c-2.8-27.7,10.1-54.5,27.9-76.4c-0.1,0-0.1,0-0.2,0c-0.2,0-0.4,0-0.6,0.1 c-0.3,0-0.5,0.1-0.8,0.1s-0.5,0.1-0.8,0.1c-1.2,0.2-2.4,0.6-3.5,1c-0.4,0.1-0.8,0.3-1.2,0.5s-0.7,0.3-1.1,0.5 c-0.2,0.1-0.3,0.1-0.5,0.2c-0.5,0.2-0.9,0.4-1.2,0.6c-2.7,1.4-5.4,3-8,4.7c-0.5,0.3-1.1,0.7-1.6,1.1c-0.5,0.4-1,0.7-1.6,1.1 c-4.8,3.4-9.2,7.4-13.1,11.9c-0.5,0.6-1,1.1-1.4,1.7c-0.7,0.9-1.4,1.7-2,2.6c-0.4,0.6-0.8,1.2-1.2,1.8c-0.5,0.7-0.9,1.4-1.3,2.1 c-0.3,0.4-0.5,0.9-0.8,1.3c-0.1,0.2-0.2,0.3-0.3,0.5c-0.3,0.5-0.5,0.9-0.8,1.4c-0.3,0.5-0.5,1-0.8,1.5c-0.3,0.5-0.5,1.1-0.8,1.6v0 c-0.6,1.2-1.1,2.4-1.6,3.7c0,0.1-0.1,0.3-0.2,0.4c-0.2,0.6-0.4,1.2-0.6,1.7v0c-0.2,0.6-0.5,1.3-0.7,2 C70.8,141,69.8,146.8,69.5,152.6z" class="st1"/><path d="M165,195.5L165,195.5L165,195.5C165,195.5,165,195.5,165,195.5z" class="st1"/><path d="M124,100.6c3.8,5.1,8.9,13.3,9.5,19.1c0.2,2.6,0.8,5.2,1.8,7.7v0c16.3-42.1,9.1-57.4,9.1-57.4 S134.4,73.1,124,100.6l6.3,10.2l13.9-40.4" class="st2"/><path d="M120.1,95.9c2.4,2.3,4.7,4.9,6.7,7.6c2.1,2.7,3.8,5.6,5.3,8.7c0.3,0.8,0.7,1.6,1,2.4l0.4,1.2l0.3,1.3 c0.2,0.9,0.4,1.7,0.4,2.6c0.1,0.8,0.1,1.6,0.2,2.4c0.3,3.3,1.4,6.5,3.1,9.3c-1.3-1.2-2.3-2.6-3-4.1c-0.7-1.6-1.3-3.2-1.7-4.9 c-0.2-0.8-0.3-1.7-0.4-2.5c-0.1-0.8-0.3-1.5-0.5-2.3l-0.3-1.1l-0.4-1.1c-0.3-0.8-0.6-1.5-1-2.2c-1.4-3-3.1-5.9-4.8-8.7 C123.7,101.5,121.9,98.7,120.1,95.9z"/><path d="M129.8,112.1c0.7-3.6,1.6-7.2,2.7-10.8c0.5-1.8,1.1-3.5,1.6-5.3l1.7-5.2c1.2-3.5,2.5-6.9,3.9-10.3 c1.4-3.4,2.9-6.8,4.5-10.1l0.1,0l-7.1,20.9l-7.3,20.8L129.8,112.1z"/><path d="M124,100.6c0.5-1.5,1.1-2.9,1.6-4.4s1.2-2.9,1.8-4.3c0.6-1.4,1.3-2.9,2-4.3c0.7-1.4,1.4-2.8,2.2-4.2 c1.5-2.8,3.3-5.4,5.2-7.9c0.5-0.6,1-1.2,1.5-1.8c0.5-0.6,1.1-1.2,1.7-1.7c0.6-0.6,1.2-1.1,1.8-1.6c0.3-0.3,0.7-0.5,1-0.7 c0.4-0.3,0.8-0.5,1.2-0.7l0.8-0.4l0.4,0.9c0.5,1.2,0.8,2.5,1,3.9c0.2,1.3,0.4,2.5,0.5,3.8c0.2,2.5,0.2,5.1,0,7.6 c-0.3,5-1.1,10.1-2.2,15c-0.2,1.2-0.6,2.5-0.9,3.7l-1,3.6c-0.7,2.4-1.5,4.8-2.3,7.2c-0.9,2.4-1.7,4.7-2.6,7.1 c-1,2.3-1.9,4.6-2.9,6.9c0.7-2.4,1.5-4.8,2.3-7.1c0.7-2.4,1.4-4.8,2.1-7.2c0.7-2.4,1.3-4.8,1.9-7.2l0.8-3.6 c0.3-1.2,0.6-2.4,0.8-3.6l0.7-3.7l0.5-3.7c0.2-1.2,0.3-2.5,0.4-3.7l0.2-1.8l0.1-1.8c0-0.6,0.1-1.2,0.1-1.8V81 c0-1.2-0.1-2.5-0.1-3.7c-0.1-1.2-0.2-2.4-0.4-3.6c-0.2-1.2-0.5-2.3-0.9-3.4l1.2,0.5c-0.6,0.3-1.2,0.7-1.8,1.1 c-0.6,0.4-1.2,0.9-1.7,1.4c-0.6,0.5-1.1,1-1.6,1.6c-0.5,0.5-1,1.1-1.5,1.7c-2,2.4-3.8,4.9-5.4,7.5c-0.8,1.3-1.6,2.7-2.4,4 c-0.7,1.4-1.5,2.7-2.2,4.1s-1.4,2.8-2.1,4.2C125.3,97.8,124.6,99.2,124,100.6z"/></g><text class="st0 st3 st4" transform="matrix(1 0 0 1 201.563 171.575)">MED</text><text class="st2 st3 st4" transform="matrix(1 0 0 1 377.681 171.575)">FREE</text></svg>